<svg version="1.1" xmlns="http://www.w3.org/2000/svg" viewBox="0 0 889.7890625 545.548828125" width="889.7890625" height="545.548828125">
  <!-- svg-source:excalidraw -->
  
  <defs>
    <style>
      @font-face {
        font-family: "Virgil";
        src: url("https://excalidraw.com/Virgil.woff2");
      }
      @font-face {
        font-family: "Cascadia";
        src: url("https://excalidraw.com/Cascadia.woff2");
      }
    </style>
  </defs>
  <rect x="0" y="0" width="889.7890625" height="545.548828125" fill="#ffffff"></rect><g stroke-linecap="round" transform="translate(118.30078125 10) rotate(0 89 42.939453125)"><path d="M-0.83 -0.71 C70.38 -1.6, 136.72 1.65, 179.8 0.67 M-0.13 0.46 C48.54 -0.88, 97.72 0.6, 178.55 0.66 M176.95 -0.43 C178.26 30.58, 178.31 58.82, 178.67 84.1 M178.89 -0.26 C176.93 26.66, 177.86 52.65, 177.39 86.69 M179.39 85.74 C121.96 86.59, 67.73 85.19, 0.56 84.62 M177.24 85.22 C112.04 84.68, 45.87 86.34, -0.66 85.05 M1.36 84.19 C-1.69 55.4, 0.41 25.07, -1.87 0.74 M0.45 86.3 C-0.11 66.78, -0.54 46.28, 0.6 -0.35" stroke="#000000" stroke-width="1" fill="none"></path></g><g transform="translate(123.30078125 35.439453125) rotate(0 84 17.5)"><text x="84" y="25" font-family="Virgil, Segoe UI Emoji" font-size="28px" fill="#000000" text-anchor="middle" style="white-space: pre;" direction="ltr">Admin</text></g><g stroke-linecap="round" transform="translate(445.14453125 19.126953125) rotate(0 89 42.939453125)"><path d="M0.19 0.57 C52.61 0.34, 109.06 -0.29, 179.72 0.52 M-0.5 0.41 C63.46 -2.6, 126.66 -0.95, 177.71 -0.66 M177.71 -1.61 C179.13 32.45, 177.19 67.4, 179.43 85.77 M178.68 -0.77 C178.83 20.04, 178.68 42.52, 177.76 86.83 M177.31 84.55 C114.22 85.54, 50.57 86.67, 1.95 87.68 M177.36 85.02 C117.51 84.98, 56.69 86.29, 0.23 86.15 M1.34 86.28 C1.84 60.11, -0.94 34.44, 0.28 -0.62 M-0.98 84.94 C-0.77 57.58, 0.15 31.02, 0.24 -0.36" stroke="#000000" stroke-width="1" fill="none"></path></g><g transform="translate(450.14453125 27.06640625) rotate(0 84 35)"><text x="84" y="25" font-family="Virgil, Segoe UI Emoji" font-size="28px" fill="#000000" text-anchor="middle" style="white-space: pre;" direction="ltr">NGINX </text><text x="84" y="60" font-family="Virgil, Segoe UI Emoji" font-size="28px" fill="#000000" text-anchor="middle" style="white-space: pre;" direction="ltr">Master</text></g><g stroke-linecap="round" transform="translate(182.14453125 219.126953125) rotate(0 89 42.939453125)"><path d="M-1.17 -1.01 C51 0.61, 101.55 -1.98, 177.75 -0.75 M-0.78 0.79 C66.39 -1.91, 131.96 -1.12, 178.8 0.9 M176.06 -0.84 C176.62 24.73, 179.23 46.35, 179.76 85.98 M177.01 -0.64 C177.59 20.49, 177.54 40.45, 177.79 86.74 M177.35 84.76 C111.46 87.63, 46.69 87.79, 1.71 85.49 M177.34 86.76 C142.4 86.06, 105.61 85.39, -0.86 85.17 M1.6 84.3 C-0.16 68.92, 0.69 49.8, 0.15 0.59 M-0.74 86.31 C0.97 56.98, 0.08 27.34, -0.38 -0.04" stroke="#000000" stroke-width="1" fill="none"></path></g><g transform="translate(187.14453125 227.06640625) rotate(0 84 35)"><text x="84" y="25" font-family="Virgil, Segoe UI Emoji" font-size="28px" fill="#000000" text-anchor="middle" style="white-space: pre;" direction="ltr">NGINX </text><text x="84" y="60" font-family="Virgil, Segoe UI Emoji" font-size="28px" fill="#000000" text-anchor="middle" style="white-space: pre;" direction="ltr">Worker</text></g><g stroke-linecap="round" transform="translate(445.5078125 217.439453125) rotate(0 89 42.939453125)"><path d="M-0.75 1.36 C50.91 2.1, 103.37 1.81, 179.78 -0.48 M0.9 -0.35 C69.68 -1.66, 139.72 -1.84, 177.59 0.97 M178.1 -1.28 C176.63 33.17, 176.35 65.68, 178.64 86.33 M178.86 0.67 C178.13 28.94, 177.61 55.66, 177.4 86.02 M177.61 83.93 C128.24 87.33, 80.93 89.17, 0.83 86.37 M177.29 84.9 C131.53 84.87, 84.87 83.57, 0.13 86.09 M0.59 86.76 C0.4 57.33, -0.9 25.67, 1.79 1.34 M-0.04 85.69 C-1.41 60.95, 0.32 34.72, 0.2 0.74" stroke="#000000" stroke-width="1" fill="none"></path></g><g transform="translate(450.5078125 225.37890625) rotate(0 84 35)"><text x="84" y="25" font-family="Virgil, Segoe UI Emoji" font-size="28px" fill="#000000" text-anchor="middle" style="white-space: pre;" direction="ltr">NGINX </text><text x="84" y="60" font-family="Virgil, Segoe UI Emoji" font-size="28px" fill="#000000" text-anchor="middle" style="white-space: pre;" direction="ltr">Worker</text></g><g stroke-linecap="round" transform="translate(701.7890625 215.830078125) rotate(0 89 42.939453125)"><path d="M1.78 -0.48 C72.03 -0.3, 141.85 0.39, 177.31 -1.33 M-0.41 0.97 C50.03 1.14, 99.14 0.8, 177.36 -0.85 M178.64 0.45 C177.7 24.28, 176.72 50.59, 179.34 86.28 M177.4 0.14 C177.41 33.11, 178.57 65.58, 177.02 84.94 M178.83 86.37 C124.5 86.61, 70.74 86.04, -1.95 86.87 M178.13 86.09 C115.94 83.8, 52.84 84.77, 0.44 85.79 M1.79 87.22 C0.64 52.78, -0.12 17.2, -0.37 -1.79 M0.2 86.62 C-0.38 52.68, -0.47 20.55, 0.62 0.77" stroke="#000000" stroke-width="1" fill="none"></path></g><g transform="translate(706.7890625 223.76953125) rotate(0 84 35)"><text x="84" y="25" font-family="Virgil, Segoe UI Emoji" font-size="28px" fill="#000000" text-anchor="middle" style="white-space: pre;" direction="ltr">NGINX </text><text x="84" y="60" font-family="Virgil, Segoe UI Emoji" font-size="28px" fill="#000000" text-anchor="middle" style="white-space: pre;" direction="ltr">Worker</text></g><g stroke-linecap="round"><g transform="translate(473.21875 113.26953125) rotate(0 -87.88312024892309 49.77193780370524)"><path d="M-0.36 0.28 C-29.75 16.99, -147.4 83.7, -176.76 100.16 M1.66 -0.61 C-27.82 15.8, -147.67 81.82, -177.42 98.66" stroke="#000000" stroke-width="1" fill="none"></path></g><g transform="translate(473.21875 113.26953125) rotate(0 -87.88312024892309 49.77193780370524)"><path d="M-157.32 76.87 C-161.11 83.33, -168.22 87.9, -179.08 98.15 M-156.88 76.87 C-162.93 82.8, -167.77 87.9, -178.07 97.68" stroke="#000000" stroke-width="1" fill="none"></path></g><g transform="translate(473.21875 113.26953125) rotate(0 -87.88312024892309 49.77193780370524)"><path d="M-147.33 94.8 C-153.79 96.41, -163.59 96.16, -179.08 98.15 M-146.89 94.79 C-155.38 96.04, -162.85 96.44, -178.07 97.68" stroke="#000000" stroke-width="1" fill="none"></path></g></g><g stroke-linecap="round"><g transform="translate(527.8359375 116.0390625) rotate(0 0.7601363618625783 45.658440514435085)"><path d="M-0.27 -0.57 C-0.12 14.38, 0.65 75.27, 0.47 90.57 M1.79 1.75 C1.89 16.78, 0.06 76.73, -0.08 91.88" stroke="#000000" stroke-width="1" fill="none"></path></g><g transform="translate(527.8359375 116.0390625) rotate(0 0.7601363618625783 45.658440514435085)"><path d="M-10.7 64.75 C-7.68 69.22, -4.06 77.97, 0.31 91.66 M-10.12 63.37 C-5.18 73.63, -3.34 84.2, 0.1 92.24" stroke="#000000" stroke-width="1" fill="none"></path></g><g transform="translate(527.8359375 116.0390625) rotate(0 0.7601363618625783 45.658440514435085)"><path d="M9.82 65.18 C7.41 69.49, 5.62 78.13, 0.31 91.66 M10.39 63.79 C8.01 73.87, 2.53 84.29, 0.1 92.24" stroke="#000000" stroke-width="1" fill="none"></path></g></g><g stroke-linecap="round"><g transform="translate(585.16015625 120.47265625) rotate(0 74.95834607556458 41.534381242380505)"><path d="M-0.55 -0.44 C24.49 13.49, 125.19 70.57, 150.46 84.78 M1.37 -1.71 C26.25 12.36, 124.79 68.83, 149.7 82.92" stroke="#000000" stroke-width="1" fill="none"></path></g><g transform="translate(585.16015625 120.47265625) rotate(0 74.95834607556458 41.534381242380505)"><path d="M119.39 78.46 C130.48 81.22, 140.07 81.46, 149.86 82.45 M119.87 77.6 C128.81 78.62, 137.61 81.63, 149.04 83.36" stroke="#000000" stroke-width="1" fill="none"></path></g><g transform="translate(585.16015625 120.47265625) rotate(0 74.95834607556458 41.534381242380505)"><path d="M129.55 60.63 C137.55 69.07, 143.88 75.03, 149.86 82.45 M130.03 59.77 C135.91 66.06, 141.73 74.31, 149.04 83.36" stroke="#000000" stroke-width="1" fill="none"></path></g></g><g stroke-linecap="round"><g transform="translate(307.859375 53.109375) rotate(0 63.454797809571005 2.048240355630398)"><path d="M-1.18 0.61 C20.22 1.36, 106.79 3.79, 128.09 4.21 M0.41 -0.11 C21.72 0.3, 106 1.59, 127.43 2.29" stroke="#000000" stroke-width="1" fill="none"></path></g><g transform="translate(307.859375 53.109375) rotate(0 63.454797809571005 2.048240355630398)"><path d="M100.03 12.85 C107.49 8.01, 113.51 7.35, 127.35 0.91 M98.23 11.57 C106.02 9.5, 114.84 7.19, 128.29 2.38" stroke="#000000" stroke-width="1" fill="none"></path></g><g transform="translate(307.859375 53.109375) rotate(0 63.454797809571005 2.048240355630398)"><path d="M100.5 -7.67 C107.78 -6.87, 113.67 -1.9, 127.35 0.91 M98.7 -8.94 C106.47 -5.4, 115.16 -2.11, 128.29 2.38" stroke="#000000" stroke-width="1" fill="none"></path></g></g><g transform="translate(332.33984375 24.68359375) rotate(0 28 12.5)"><text x="0" y="18" font-family="Virgil, Segoe UI Emoji" font-size="20px" fill="#000000" text-anchor="start" style="white-space: pre;" direction="ltr">Signal</text></g><g stroke-linecap="round" transform="translate(10 448.345703125) rotate(0 89 42.939453125)"><path d="M-0.35 -0.65 C67 -1.64, 133.87 -1.73, 176.46 -0.09 M0.43 -0.43 C68.01 1.05, 137.4 0.52, 178.97 0.43 M178.19 -0.49 C180.35 30.22, 179.9 61.05, 177.69 85.93 M177.88 0.87 C177.41 22.3, 177.36 44.97, 177.01 85.06 M177.75 86.89 C106.93 87.58, 38.84 87.36, 1.8 86.29 M178.82 86.24 C125.75 84.25, 71.25 84.3, -0.99 86.01 M-0.14 87.16 C-0.6 53.7, 0.62 20.59, 1.48 -0.56 M-0.37 85.77 C-1.11 68.3, -1.2 49.68, 0.29 0.59" stroke="#000000" stroke-width="1" fill="none"></path></g><g transform="translate(15 473.78515625) rotate(0 84 17.5)"><text x="84" y="25" font-family="Virgil, Segoe UI Emoji" font-size="28px" fill="#000000" text-anchor="middle" style="white-space: pre;" direction="ltr">Client</text></g><g stroke-linecap="round" transform="translate(268.62890625 449.669921875) rotate(0 89 42.939453125)"><path d="M0.6 0.27 C53.16 2.62, 108.78 2.75, 178.71 1.02 M-0.44 -0.87 C40.69 -0.29, 83.26 -1.96, 177.24 0.88 M178.84 -1.92 C176.85 18.16, 177.72 34.53, 177.46 85.76 M177.78 0.99 C177.28 31.12, 178.51 61.24, 177.22 85.51 M176.02 85.96 C107.74 85.65, 40.85 83.98, 1.77 84.92 M177.46 86.86 C138.25 85.62, 98.1 85.4, 0.79 85.31 M-0.71 86.75 C0.98 58.26, 0.5 31.86, -0.17 -1.11 M-0.42 86.63 C1.15 53.25, 0.22 19.59, 0.37 0.59" stroke="#000000" stroke-width="1" fill="none"></path></g><g transform="translate(273.62890625 475.109375) rotate(0 84 17.5)"><text x="84" y="25" font-family="Virgil, Segoe UI Emoji" font-size="28px" fill="#000000" text-anchor="middle" style="white-space: pre;" direction="ltr">Client</text></g><g stroke-linecap="round"><g transform="translate(152.50390625 437.046875) rotate(0 41.50381502354048 -60.81405693606939)"><path d="M0.16 -0.37 C14.25 -20.27, 70.43 -99.59, 84.22 -119.73 M-1.21 -1.61 C12.81 -21.78, 69.79 -101.52, 83.63 -121.26" stroke="#000000" stroke-width="1" fill="none"></path></g><g transform="translate(152.50390625 437.046875) rotate(0 41.50381502354048 -60.81405693606939)"><path d="M75.09 -91.2 C79.83 -101.3, 79.53 -106.88, 85.16 -119.36 M74.91 -92.25 C79.38 -102.76, 82.26 -113.68, 82.71 -122.04" stroke="#000000" stroke-width="1" fill="none"></path></g><g transform="translate(152.50390625 437.046875) rotate(0 41.50381502354048 -60.81405693606939)"><path d="M58.35 -103.06 C67.63 -109.94, 71.91 -112.28, 85.16 -119.36 M58.16 -104.11 C68.66 -110.46, 77.53 -117.14, 82.71 -122.04" stroke="#000000" stroke-width="1" fill="none"></path></g></g><g stroke-linecap="round"><g transform="translate(323.56640625 434.359375) rotate(0 -21.43801140260888 -59.509048648043546)"><path d="M-1.09 -0.45 C-8.17 -20.09, -35.67 -97.29, -42.37 -116.73 M0.54 -1.73 C-6.72 -21.21, -36.39 -99.57, -43.42 -118.57" stroke="#000000" stroke-width="1" fill="none"></path></g><g transform="translate(323.56640625 434.359375) rotate(0 -21.43801140260888 -59.509048648043546)"><path d="M-24.66 -96.1 C-29.24 -101.57, -35.89 -110.94, -43.76 -119.73 M-24.1 -96.5 C-31.27 -103.05, -36.12 -110.49, -42.58 -118.91" stroke="#000000" stroke-width="1" fill="none"></path></g><g transform="translate(323.56640625 434.359375) rotate(0 -21.43801140260888 -59.509048648043546)"><path d="M-43.88 -88.89 C-42.59 -96.41, -43.3 -108.01, -43.76 -119.73 M-43.32 -89.3 C-44.27 -98.36, -42.87 -108.15, -42.58 -118.91" stroke="#000000" stroke-width="1" fill="none"></path></g></g><g transform="translate(227.52734375 345.21484375) rotate(0 27.5 12.5)"><text x="0" y="18" font-family="Virgil, Segoe UI Emoji" font-size="20px" fill="#000000" text-anchor="start" style="white-space: pre;" direction="ltr">Query</text></g></svg>